<?xml version="1.0" standalone="no"?>
<svg xmlns:xlink="http://www.w3.org/1999/xlink" id="wave" style="transform:rotate(180deg); transition: 0.3s" viewBox="0 0 1440 490" version="1.1" xmlns="http://www.w3.org/2000/svg"><defs><linearGradient id="sw-gradient-0" x1="0" x2="0" y1="1" y2="0"><stop stop-color="rgba(243, 106, 62, 1)" offset="0%"/><stop stop-color="rgba(255, 179, 11, 1)" offset="100%"/></linearGradient></defs><path style="transform:translate(0, 0px); opacity:1" fill="url(#sw-gradient-0)" d="M0,196L26.7,228.7C53.3,261,107,327,160,318.5C213.3,310,267,229,320,187.8C373.3,147,427,147,480,147C533.3,147,587,147,640,122.5C693.3,98,747,49,800,98C853.3,147,907,294,960,302.2C1013.3,310,1067,180,1120,114.3C1173.3,49,1227,49,1280,73.5C1333.3,98,1387,147,1440,147C1493.3,147,1547,98,1600,122.5C1653.3,147,1707,245,1760,245C1813.3,245,1867,147,1920,155.2C1973.3,163,2027,278,2080,277.7C2133.3,278,2187,163,2240,138.8C2293.3,114,2347,180,2400,228.7C2453.3,278,2507,310,2560,326.7C2613.3,343,2667,343,2720,310.3C2773.3,278,2827,212,2880,179.7C2933.3,147,2987,147,3040,179.7C3093.3,212,3147,278,3200,261.3C3253.3,245,3307,147,3360,163.3C3413.3,180,3467,310,3520,302.2C3573.3,294,3627,147,3680,147C3733.3,147,3787,294,3813,367.5L3840,441L3840,490L3813.3,490C3786.7,490,3733,490,3680,490C3626.7,490,3573,490,3520,490C3466.7,490,3413,490,3360,490C3306.7,490,3253,490,3200,490C3146.7,490,3093,490,3040,490C2986.7,490,2933,490,2880,490C2826.7,490,2773,490,2720,490C2666.7,490,2613,490,2560,490C2506.7,490,2453,490,2400,490C2346.7,490,2293,490,2240,490C2186.7,490,2133,490,2080,490C2026.7,490,1973,490,1920,490C1866.7,490,1813,490,1760,490C1706.7,490,1653,490,1600,490C1546.7,490,1493,490,1440,490C1386.7,490,1333,490,1280,490C1226.7,490,1173,490,1120,490C1066.7,490,1013,490,960,490C906.7,490,853,490,800,490C746.7,490,693,490,640,490C586.7,490,533,490,480,490C426.7,490,373,490,320,490C266.7,490,213,490,160,490C106.7,490,53,490,27,490L0,490Z"/><defs><linearGradient id="sw-gradient-1" x1="0" x2="0" y1="1" y2="0"><stop stop-color="rgba(243, 106, 62, 1)" offset="0%"/><stop stop-color="rgba(255, 179, 11, 1)" offset="100%"/></linearGradient></defs><path style="transform:translate(0, 50px); opacity:0.9" fill="url(#sw-gradient-1)" d="M0,147L26.7,122.5C53.3,98,107,49,160,49C213.3,49,267,98,320,122.5C373.3,147,427,147,480,122.5C533.3,98,587,49,640,89.8C693.3,131,747,261,800,269.5C853.3,278,907,163,960,114.3C1013.3,65,1067,82,1120,73.5C1173.3,65,1227,33,1280,65.3C1333.3,98,1387,196,1440,236.8C1493.3,278,1547,261,1600,245C1653.3,229,1707,212,1760,179.7C1813.3,147,1867,98,1920,65.3C1973.3,33,2027,16,2080,65.3C2133.3,114,2187,229,2240,236.8C2293.3,245,2347,147,2400,122.5C2453.3,98,2507,147,2560,155.2C2613.3,163,2667,131,2720,130.7C2773.3,131,2827,163,2880,196C2933.3,229,2987,261,3040,285.8C3093.3,310,3147,327,3200,343C3253.3,359,3307,376,3360,359.3C3413.3,343,3467,294,3520,285.8C3573.3,278,3627,310,3680,269.5C3733.3,229,3787,114,3813,57.2L3840,0L3840,490L3813.3,490C3786.7,490,3733,490,3680,490C3626.7,490,3573,490,3520,490C3466.7,490,3413,490,3360,490C3306.7,490,3253,490,3200,490C3146.7,490,3093,490,3040,490C2986.7,490,2933,490,2880,490C2826.7,490,2773,490,2720,490C2666.7,490,2613,490,2560,490C2506.7,490,2453,490,2400,490C2346.7,490,2293,490,2240,490C2186.7,490,2133,490,2080,490C2026.7,490,1973,490,1920,490C1866.7,490,1813,490,1760,490C1706.7,490,1653,490,1600,490C1546.7,490,1493,490,1440,490C1386.7,490,1333,490,1280,490C1226.7,490,1173,490,1120,490C1066.7,490,1013,490,960,490C906.7,490,853,490,800,490C746.7,490,693,490,640,490C586.7,490,533,490,480,490C426.7,490,373,490,320,490C266.7,490,213,490,160,490C106.7,490,53,490,27,490L0,490Z"/><defs><linearGradient id="sw-gradient-2" x1="0" x2="0" y1="1" y2="0"><stop stop-color="rgba(243, 106, 62, 1)" offset="0%"/><stop stop-color="rgba(255, 179, 11, 1)" offset="100%"/></linearGradient></defs><path style="transform:translate(0, 100px); opacity:0.8" fill="url(#sw-gradient-2)" d="M0,245L26.7,261.3C53.3,278,107,310,160,326.7C213.3,343,267,343,320,285.8C373.3,229,427,114,480,89.8C533.3,65,587,131,640,171.5C693.3,212,747,229,800,220.5C853.3,212,907,180,960,187.8C1013.3,196,1067,245,1120,269.5C1173.3,294,1227,294,1280,310.3C1333.3,327,1387,359,1440,334.8C1493.3,310,1547,229,1600,171.5C1653.3,114,1707,82,1760,130.7C1813.3,180,1867,310,1920,326.7C1973.3,343,2027,245,2080,220.5C2133.3,196,2187,245,2240,294C2293.3,343,2347,392,2400,383.8C2453.3,376,2507,310,2560,310.3C2613.3,310,2667,376,2720,367.5C2773.3,359,2827,278,2880,245C2933.3,212,2987,229,3040,253.2C3093.3,278,3147,310,3200,326.7C3253.3,343,3307,343,3360,343C3413.3,343,3467,343,3520,310.3C3573.3,278,3627,212,3680,171.5C3733.3,131,3787,114,3813,106.2L3840,98L3840,490L3813.3,490C3786.7,490,3733,490,3680,490C3626.7,490,3573,490,3520,490C3466.7,490,3413,490,3360,490C3306.7,490,3253,490,3200,490C3146.7,490,3093,490,3040,490C2986.7,490,2933,490,2880,490C2826.7,490,2773,490,2720,490C2666.7,490,2613,490,2560,490C2506.7,490,2453,490,2400,490C2346.7,490,2293,490,2240,490C2186.7,490,2133,490,2080,490C2026.7,490,1973,490,1920,490C1866.7,490,1813,490,1760,490C1706.7,490,1653,490,1600,490C1546.7,490,1493,490,1440,490C1386.7,490,1333,490,1280,490C1226.7,490,1173,490,1120,490C1066.7,490,1013,490,960,490C906.7,490,853,490,800,490C746.7,490,693,490,640,490C586.7,490,533,490,480,490C426.7,490,373,490,320,490C266.7,490,213,490,160,490C106.7,490,53,490,27,490L0,490Z"/><defs><linearGradient id="sw-gradient-3" x1="0" x2="0" y1="1" y2="0"><stop stop-color="rgba(243, 106, 62, 1)" offset="0%"/><stop stop-color="rgba(255, 179, 11, 1)" offset="100%"/></linearGradient></defs><path style="transform:translate(0, 150px); opacity:0.7" fill="url(#sw-gradient-3)" d="M0,196L26.7,228.7C53.3,261,107,327,160,318.5C213.3,310,267,229,320,179.7C373.3,131,427,114,480,106.2C533.3,98,587,98,640,81.7C693.3,65,747,33,800,16.3C853.3,0,907,0,960,65.3C1013.3,131,1067,261,1120,285.8C1173.3,310,1227,229,1280,220.5C1333.3,212,1387,278,1440,285.8C1493.3,294,1547,245,1600,228.7C1653.3,212,1707,229,1760,228.7C1813.3,229,1867,212,1920,204.2C1973.3,196,2027,196,2080,204.2C2133.3,212,2187,229,2240,204.2C2293.3,180,2347,114,2400,114.3C2453.3,114,2507,180,2560,204.2C2613.3,229,2667,212,2720,220.5C2773.3,229,2827,261,2880,253.2C2933.3,245,2987,196,3040,171.5C3093.3,147,3147,147,3200,187.8C3253.3,229,3307,310,3360,318.5C3413.3,327,3467,261,3520,196C3573.3,131,3627,65,3680,40.8C3733.3,16,3787,33,3813,40.8L3840,49L3840,490L3813.3,490C3786.7,490,3733,490,3680,490C3626.7,490,3573,490,3520,490C3466.7,490,3413,490,3360,490C3306.7,490,3253,490,3200,490C3146.7,490,3093,490,3040,490C2986.7,490,2933,490,2880,490C2826.7,490,2773,490,2720,490C2666.7,490,2613,490,2560,490C2506.7,490,2453,490,2400,490C2346.7,490,2293,490,2240,490C2186.7,490,2133,490,2080,490C2026.7,490,1973,490,1920,490C1866.7,490,1813,490,1760,490C1706.7,490,1653,490,1600,490C1546.7,490,1493,490,1440,490C1386.7,490,1333,490,1280,490C1226.7,490,1173,490,1120,490C1066.7,490,1013,490,960,490C906.7,490,853,490,800,490C746.7,490,693,490,640,490C586.7,490,533,490,480,490C426.7,490,373,490,320,490C266.7,490,213,490,160,490C106.7,490,53,490,27,490L0,490Z"/></svg>