<?xml version="1.0" standalone="no"?><svg xmlns="http://www.w3.org/2000/svg" viewBox="0 0 1440 320"><path fill="#C1E297" fill-opacity="1" d="M0,128L21.8,149.3C43.6,171,87,213,131,224C174.5,235,218,213,262,192C305.5,171,349,149,393,170.7C436.4,192,480,256,524,266.7C567.3,277,611,235,655,224C698.2,213,742,235,785,240C829.1,245,873,235,916,197.3C960,160,1004,96,1047,106.7C1090.9,117,1135,203,1178,250.7C1221.8,299,1265,309,1309,272C1352.7,235,1396,149,1418,106.7L1440,64L1440,0L1418.2,0C1396.4,0,1353,0,1309,0C1265.5,0,1222,0,1178,0C1134.5,0,1091,0,1047,0C1003.6,0,960,0,916,0C872.7,0,829,0,785,0C741.8,0,698,0,655,0C610.9,0,567,0,524,0C480,0,436,0,393,0C349.1,0,305,0,262,0C218.2,0,175,0,131,0C87.3,0,44,0,22,0L0,0Z"></path></svg>